<svg width="171" height="34" viewBox="0 0 171 34" fill="none" xmlns="http://www.w3.org/2000/svg">
<path d="M42.1799 13.2131C42.9501 11.958 43.9485 10.9738 45.1751 10.2607C46.4303 9.54755 47.8566 9.19097 49.454 9.19097V15.481H47.8708C45.9881 15.481 44.5618 15.9231 43.5919 16.8074C42.6506 17.6917 42.1799 19.2321 42.1799 21.4286V33.2384H36.1895V9.53328H42.1799V13.2131Z" fill="black"/>
<path d="M60.4635 14.454V25.9215C60.4635 26.7202 60.6489 27.305 61.0198 27.6758C61.4191 28.0181 62.0752 28.1893 62.988 28.1893H65.7693V33.2384H62.0039C56.9548 33.2384 54.4303 30.7851 54.4303 25.8787V14.454H51.6062V9.53328H54.4303V3.6712H60.4635V9.53328H65.7693V14.454H60.4635Z" fill="black"/>
<path d="M92.1143 20.8724C92.1143 21.7281 92.0572 22.4983 91.9431 23.183H74.6136C74.7562 24.8945 75.3553 26.2353 76.4107 27.2051C77.4662 28.175 78.7641 28.66 80.3045 28.66C82.5296 28.66 84.1128 27.7043 85.0541 25.7931H91.5152C90.8306 28.0752 89.5184 29.9579 87.5787 31.4412C85.6389 32.8961 83.257 33.6235 80.4329 33.6235C78.1508 33.6235 76.097 33.1243 74.2713 32.1259C72.4742 31.0989 71.0621 29.6584 70.0352 27.8042C69.0368 25.95 68.5376 23.8105 68.5376 21.3858C68.5376 18.9326 69.0368 16.7789 70.0352 14.9247C71.0336 13.0705 72.4314 11.6442 74.2285 10.6458C76.0256 9.64739 78.0938 9.14818 80.4329 9.14818C82.6865 9.14818 84.6975 9.63313 86.4661 10.603C88.2633 11.5729 89.6468 12.9564 90.6167 14.7535C91.6151 16.5221 92.1143 18.5618 92.1143 20.8724ZM85.9099 19.1608C85.8814 17.6204 85.3251 16.3938 84.2411 15.481C83.1571 14.5396 81.8307 14.0689 80.2617 14.0689C78.7784 14.0689 77.5233 14.5253 76.4963 15.4382C75.4979 16.3225 74.8846 17.5633 74.6564 19.1608H85.9099Z" fill="black"/>
<path d="M125.926 9.19097C128.835 9.19097 131.174 10.0895 132.943 11.8867C134.74 13.6553 135.639 16.137 135.639 19.332V33.2384H129.648V20.1449C129.648 18.2908 129.178 16.8787 128.236 15.9088C127.295 14.9104 126.011 14.4112 124.385 14.4112C122.759 14.4112 121.461 14.9104 120.491 15.9088C119.55 16.8787 119.079 18.2908 119.079 20.1449V33.2384H113.089V20.1449C113.089 18.2908 112.618 16.8787 111.677 15.9088C110.736 14.9104 109.452 14.4112 107.826 14.4112C106.171 14.4112 104.859 14.9104 103.889 15.9088C102.948 16.8787 102.477 18.2908 102.477 20.1449V33.2384H96.4868V9.53328H102.477V12.4001C103.247 11.4017 104.232 10.6173 105.43 10.0468C106.656 9.47623 107.997 9.19097 109.452 9.19097C111.306 9.19097 112.961 9.59033 114.415 10.3891C115.87 11.1593 116.997 12.2718 117.796 13.7266C118.566 12.3574 119.678 11.2591 121.133 10.4319C122.617 9.6046 124.214 9.19097 125.926 9.19097Z" fill="black"/>
<path d="M143.634 7.09356C142.578 7.09356 141.694 6.76551 140.981 6.10942C140.296 5.42479 139.954 4.58328 139.954 3.58487C139.954 2.58646 140.296 1.7592 140.981 1.10311C141.694 0.418483 142.578 0.0761719 143.634 0.0761719C144.689 0.0761719 145.559 0.418483 146.244 1.10311C146.957 1.7592 147.314 2.58646 147.314 3.58487C147.314 4.58328 146.957 5.42479 146.244 6.10942C145.559 6.76551 144.689 7.09356 143.634 7.09356ZM146.586 9.91763L146.359 27.1251L140.596 33.6227V9.91763H146.586Z" fill="black"/>
<path d="M161.148 33.6227C159.209 33.6227 157.468 33.2804 155.928 32.5958C154.388 31.8827 153.161 30.927 152.248 29.7289C151.364 28.5309 150.879 27.2044 150.793 25.7496H156.827C156.941 26.6624 157.383 27.4183 158.153 28.0174C158.952 28.6164 159.936 28.916 161.105 28.916C162.247 28.916 163.131 28.6877 163.758 28.2313C164.414 27.7749 164.743 27.1901 164.743 26.477C164.743 25.7068 164.343 25.1363 163.544 24.7654C162.774 24.3661 161.533 23.9382 159.822 23.4818C158.053 23.0539 156.598 22.6117 155.457 22.1553C154.345 21.6989 153.375 21 152.548 20.0586C151.749 19.1173 151.35 17.8479 151.35 16.2504C151.35 14.9382 151.72 13.7401 152.462 12.6562C153.232 11.5722 154.316 10.7164 155.714 10.0888C157.14 9.46124 158.809 9.14746 160.72 9.14746C163.544 9.14746 165.798 9.86061 167.481 11.2869C169.164 12.6847 170.091 14.5817 170.262 16.9778H164.529C164.443 16.0365 164.044 15.2948 163.331 14.7528C162.646 14.1823 161.719 13.897 160.549 13.897C159.465 13.897 158.624 14.0967 158.025 14.4961C157.454 14.8954 157.169 15.4517 157.169 16.1648C157.169 16.9636 157.568 17.5769 158.367 18.0048C159.166 18.4041 160.407 18.8178 162.09 19.2457C163.801 19.6735 165.213 20.1157 166.326 20.5721C167.438 21.0285 168.394 21.7417 169.193 22.7116C170.02 23.6529 170.448 24.9081 170.476 26.477C170.476 27.8462 170.091 29.0729 169.321 30.1568C168.579 31.2408 167.495 32.0966 166.069 32.7242C164.671 33.3232 163.031 33.6227 161.148 33.6227Z" fill="black"/>
<path fill-rule="evenodd" clip-rule="evenodd" d="M1.5101 0.267617C2.83961 -0.375698 4.43891 0.180579 5.08223 1.5101L16.6281 25.3717L24.3064 16.5559H17.7595C16.2825 16.5559 15.0852 15.3585 15.0852 13.8816C15.0852 12.4046 16.2825 11.2072 17.7595 11.2072H30.1821C31.2303 11.2072 32.1819 11.8196 32.6162 12.7737C33.0504 13.7278 32.8872 14.8475 32.1988 15.638L18.0015 31.9386C17.4115 32.616 16.5208 32.9519 15.6304 32.8328C14.74 32.7138 13.9688 32.1556 13.5775 31.3469L0.267617 3.83975C-0.375698 2.51023 0.180579 0.910932 1.5101 0.267617Z" fill="#FFC107"/>
</svg>
